<svg xmlns="http://www.w3.org/2000/svg" width="39.812" height="19.94" viewBox="0 0 39.812 19.94">
  <defs>
    <style>
      .cls-1 {
        fill: #f34747;
        fill-rule: evenodd;
      }
    </style>
  </defs>
  <path id="right" class="cls-1" d="M952.557,2710.52l-10.366-9.26a0.816,0.816,0,0,0-1.059,0,1.9,1.9,0,0,0-.293,1.74s3.465,3.76,5.971,6c0.405,0.36-33.833,0-33.833,0v4s34.8-.87,33.833,0c-2.8,2.5-5.971,6-5.971,6a2.026,2.026,0,0,0,.293,1.8,0.8,0.8,0,0,0,1.059,0l10.366-9.25a0.624,0.624,0,0,0,.21-0.52A0.617,0.617,0,0,0,952.557,2710.52Z" transform="translate(-912.969 -2701.06)"/>
</svg>
